<svg width="49" height="49" viewBox="0 0 49 49" fill="none" xmlns="http://www.w3.org/2000/svg">
<path d="M24.5 47.4688C16.9448 47.4688 11.6446 47.185 8.3055 46.9134C4.949 46.6409 2.35915 44.051 2.08658 40.6945C1.81504 37.3554 1.53125 32.0552 1.53125 24.5C1.53125 16.9448 1.81504 11.6446 2.08658 8.3055C2.35915 4.949 4.949 2.35915 8.3055 2.08658C11.6446 1.81504 16.9448 1.53125 24.5 1.53125C32.0552 1.53125 37.3554 1.81504 40.6945 2.08658C44.051 2.35915 46.6409 4.949 46.9134 8.3055C47.185 11.6446 47.4688 16.9448 47.4688 24.5C47.4688 32.0552 47.185 37.3554 46.9134 40.6945C46.6409 44.051 44.051 46.6409 40.6945 46.9134C37.3554 47.185 32.0552 47.4688 24.5 47.4688Z" fill="#8FBFFA"/>
<path d="M22.5819 47.4628C25.0946 47.4782 27.6074 47.4612 30.1197 47.4118C30.1265 47.3444 30.1302 47.276 30.1309 47.2066V30.665H35.7853C36.6918 30.665 37.5075 30.0678 37.6402 29.1715C37.8181 27.9133 37.8129 26.6359 37.6249 25.3791C37.4942 24.4992 36.7102 23.9193 35.82 23.9193H30.1309C30.1309 18.8213 30.9792 18.0802 35.7608 17.9873C36.6785 17.9689 37.5013 17.3645 37.6351 16.456C37.8597 14.9299 37.7698 13.5956 37.6289 12.6585C37.4993 11.7908 36.7224 11.2273 35.8466 11.2344C27.3951 11.3079 22.5819 12.3073 22.5819 23.9193H18.2045C17.3532 23.9193 16.5977 24.4522 16.4691 25.2934C16.3303 26.1999 16.2466 27.5137 16.4783 29.1113C16.611 30.0341 17.442 30.665 18.375 30.665H22.5819V47.4628Z" fill="#2859C5"/>
</svg>
