<svg width="49" height="49" viewBox="0 0 49 49" fill="none" xmlns="http://www.w3.org/2000/svg">
<g clip-path="url(#clip0_391_3)">
<path d="M37.5156 0H11.4844C5.14173 0 0 5.14173 0 11.4844V37.5156C0 43.8583 5.14173 49 11.4844 49H37.5156C43.8583 49 49 43.8583 49 37.5156V11.4844C49 5.14173 43.8583 0 37.5156 0Z" fill="url(#paint0_radial_391_3)"/>
<path d="M37.5156 0H11.4844C5.14173 0 0 5.14173 0 11.4844V37.5156C0 43.8583 5.14173 49 11.4844 49H37.5156C43.8583 49 49 43.8583 49 37.5156V11.4844C49 5.14173 43.8583 0 37.5156 0Z" fill="url(#paint1_radial_391_3)"/>
<path d="M24.5017 5.35938C19.3035 5.35938 18.651 5.38215 16.6095 5.47498C14.5718 5.56839 13.1808 5.89091 11.9638 6.36426C10.7048 6.85311 9.63692 7.50714 8.57309 8.57136C7.50829 9.63539 6.85426 10.7032 6.36388 11.9617C5.88919 13.1791 5.56629 14.5706 5.4746 16.6074C5.3833 18.6491 5.35938 19.3018 5.35938 24.5002C5.35938 29.6986 5.38234 30.349 5.47498 32.3905C5.56877 34.4282 5.89129 35.8192 6.36426 37.0362C6.85349 38.2952 7.50753 39.3631 8.57175 40.4269C9.63539 41.4917 10.7032 42.1473 11.9614 42.6361C13.1793 43.1095 14.5704 43.432 16.6077 43.5254C18.6495 43.6182 19.3014 43.641 24.4994 43.641C29.6982 43.641 30.3486 43.6182 32.3901 43.5254C34.4279 43.432 35.8203 43.1095 37.0383 42.6361C38.2968 42.1473 39.3631 41.4917 40.4265 40.4269C41.4913 39.3631 42.1452 38.2952 42.6357 37.0367C43.1062 35.8192 43.4293 34.4279 43.525 32.3909C43.6167 30.3494 43.6406 29.6986 43.6406 24.5002C43.6406 19.3018 43.6167 18.6495 43.525 16.6077C43.4293 14.57 43.1062 13.1793 42.6357 11.9623C42.1452 10.7032 41.4913 9.63539 40.4265 8.57136C39.3619 7.50676 38.2971 6.85273 37.0371 6.36445C35.8169 5.89091 34.4252 5.5682 32.3875 5.47498C30.3457 5.38215 29.6957 5.35938 24.4958 5.35938H24.5017ZM22.7846 8.80871C23.2943 8.80794 23.863 8.80871 24.5017 8.80871C29.6125 8.80871 30.2181 8.82708 32.2363 8.91877C34.1025 9.00413 35.1154 9.31593 35.7901 9.57797C36.6834 9.9248 37.3202 10.3396 37.9897 11.0097C38.6597 11.6796 39.0742 12.3176 39.422 13.2109C39.6841 13.8846 39.9963 14.8975 40.0812 16.7637C40.1729 18.7815 40.1928 19.3875 40.1928 24.4958C40.1928 29.604 40.1729 30.2102 40.0812 32.2278C39.9959 34.094 39.6841 35.107 39.422 35.7809C39.0752 36.6742 38.6597 37.3102 37.9897 37.9798C37.3198 38.6497 36.6838 39.0643 35.7901 39.4113C35.1162 39.6745 34.1025 39.9855 32.2363 40.0709C30.2185 40.1626 29.6125 40.1825 24.5017 40.1825C19.3908 40.1825 18.785 40.1626 16.7674 40.0709C14.9012 39.9848 13.8882 39.673 13.213 39.4109C12.3199 39.0639 11.6817 38.6493 11.0118 37.9794C10.3419 37.3095 9.92729 36.6731 9.5795 35.7794C9.31746 35.1054 9.00528 34.0925 8.9203 32.2263C8.82861 30.2085 8.81024 29.6025 8.81024 24.491C8.81024 19.3795 8.82861 18.7768 8.9203 16.759C9.00566 14.8927 9.31746 13.8798 9.5795 13.2051C9.92652 12.3118 10.3419 11.6739 11.012 11.0039C11.6821 10.334 12.3199 9.91925 13.2132 9.57165C13.8879 9.30847 14.9012 8.99743 16.7674 8.91168C18.5331 8.83187 19.2174 8.80794 22.7846 8.80392V8.80871ZM34.719 11.9868C33.4509 11.9868 32.4221 13.0147 32.4221 14.2829C32.4221 15.551 33.4509 16.5798 34.719 16.5798C35.9871 16.5798 37.0159 15.551 37.0159 14.2829C37.0159 13.0149 35.9871 11.9861 34.719 11.9861V11.9868ZM24.5017 14.6705C19.0734 14.6705 14.6722 19.0717 14.6722 24.5002C14.6722 29.9287 19.0734 34.3278 24.5017 34.3278C29.9302 34.3278 34.3299 29.9287 34.3299 24.5002C34.3299 19.0719 29.9298 14.6705 24.5013 14.6705H24.5017ZM24.5017 18.1199C28.0253 18.1199 30.8821 20.9762 30.8821 24.5002C30.8821 28.0238 28.0253 30.8805 24.5017 30.8805C20.9781 30.8805 18.1216 28.0238 18.1216 24.5002C18.1216 20.9762 20.9779 18.1199 24.5017 18.1199Z" fill="white"/>
</g>
<defs>
<radialGradient id="paint0_radial_391_3" cx="0" cy="0" r="1" gradientUnits="userSpaceOnUse" gradientTransform="translate(13.0156 52.774) rotate(-90) scale(48.5626 45.1671)">
<stop stop-color="#FFDD55"/>
<stop offset="0.1" stop-color="#FFDD55"/>
<stop offset="0.5" stop-color="#FF543E"/>
<stop offset="1" stop-color="#C837AB"/>
</radialGradient>
<radialGradient id="paint1_radial_391_3" cx="0" cy="0" r="1" gradientUnits="userSpaceOnUse" gradientTransform="translate(-8.20769 3.52972) rotate(78.681) scale(21.7078 89.4801)">
<stop stop-color="#3771C8"/>
<stop offset="0.128" stop-color="#3771C8"/>
<stop offset="1" stop-color="#6600FF" stop-opacity="0"/>
</radialGradient>
<clipPath id="clip0_391_3">
<rect width="49" height="49" fill="white"/>
</clipPath>
</defs>
</svg>
