<svg width="40" height="46" viewBox="0 0 40 46" fill="none" xmlns="http://www.w3.org/2000/svg">
<g clip-path="url(#clip0_391_15)">
<path d="M29.6438 16.5634C32.5622 18.6802 36.1375 19.9257 39.9989 19.9257V12.3864C39.2681 12.3867 38.5392 12.3093 37.8242 12.1555V18.0899C33.9631 18.0899 30.3883 16.8446 27.4692 14.728V30.1136C27.4692 37.8103 21.3199 44.0492 13.7349 44.0492C10.9047 44.0492 8.27408 43.181 6.08893 41.6921C8.58299 44.2796 12.0611 45.8847 15.9089 45.8847C23.4946 45.8847 29.6441 39.6459 29.6441 31.9488V16.5634H29.6438ZM32.3266 8.9572C30.835 7.3039 29.8556 5.16728 29.6438 2.8051V1.83545H27.583C28.1017 4.83766 29.8713 7.40256 32.3266 8.9572ZM10.8864 35.786C10.053 34.6775 9.60259 33.3212 9.60471 31.9267C9.60471 28.4066 12.4174 25.5524 15.8875 25.5524C16.5341 25.5521 17.1769 25.6528 17.7933 25.8511V18.1432C17.073 18.0432 16.3461 18.0005 15.6196 18.0162V24.0155C15.0029 23.8172 14.3597 23.7165 13.7128 23.717C10.2428 23.717 7.43033 26.5709 7.43033 30.0915C7.43033 32.5809 8.83611 34.7361 10.8864 35.786Z" fill="#FF004F"/>
<path d="M27.4692 14.7278C30.3885 16.8445 33.963 18.0898 37.8242 18.0898V12.1553C35.6689 11.6894 33.761 10.5467 32.3264 8.9572C29.871 7.4024 28.1017 4.8375 27.583 1.83545H22.17V31.9485C22.1577 35.4591 19.3499 38.3016 15.8872 38.3016C13.8469 38.3016 12.0341 37.3148 10.8861 35.7858C8.83612 34.7361 7.43019 32.5807 7.43019 30.0917C7.43019 26.5714 10.2427 23.7172 13.7127 23.7172C14.3775 23.7172 15.0183 23.8222 15.6194 24.0157V18.0163C8.16753 18.1726 2.17456 24.3505 2.17456 31.9486C2.17456 35.7416 3.6669 39.18 6.08909 41.6924C8.27425 43.181 10.9047 44.0495 13.735 44.0495C21.3202 44.0495 27.4694 37.8101 27.4694 30.1136L27.4692 14.7278Z" fill="black"/>
<path d="M37.8242 12.1551V10.5508C35.8806 10.5537 33.9755 10.0014 32.3264 8.95715C33.7861 10.5786 35.7082 11.6967 37.8242 12.1554M27.5828 1.83524C27.5334 1.54839 27.4955 1.25962 27.4691 0.969648V0H19.995V30.1133C19.9831 33.6236 17.1753 36.4661 13.7125 36.4661C12.7308 36.4676 11.7626 36.2346 10.8859 35.7861C12.0339 37.3147 13.8467 38.3013 15.887 38.3013C19.3495 38.3013 22.1577 35.4592 22.1698 31.9486V1.8354L27.5828 1.83524ZM15.6197 18.0161V16.308C14.9951 16.2214 14.3655 16.178 13.7352 16.1782C6.14922 16.1782 0 22.4174 0 30.1133C0 34.9384 2.41672 39.1907 6.08922 41.692C3.66703 39.1798 2.17469 35.7412 2.17469 31.9484C2.17469 24.3505 8.1675 18.1724 15.6197 18.0161Z" fill="#00F2EA"/>
</g>
<defs>
<clipPath id="clip0_391_15">
<rect width="40" height="46" fill="white"/>
</clipPath>
</defs>
</svg>
