<svg width="49" height="35" viewBox="0 0 49 35" fill="none" xmlns="http://www.w3.org/2000/svg">
<g clip-path="url(#clip0_391_12)">
<path d="M47.9178 5.45903C47.6368 4.40389 47.0885 3.44195 46.3277 2.669C45.5669 1.89605 44.62 1.33906 43.5813 1.0535C39.7789 0 24.4752 0 24.4752 0C24.4752 0 9.17069 0.0318888 5.36822 1.08539C4.32955 1.37097 3.38265 1.92799 2.62181 2.70097C1.86097 3.47395 1.31274 4.43593 1.03172 5.49111C-0.118444 12.3546 -0.564612 22.813 1.0633 29.4019C1.34435 30.4571 1.8926 31.419 2.65343 32.192C3.41427 32.9649 4.36116 33.5219 5.3998 33.8075C9.20228 34.861 24.5064 34.861 24.5064 34.861C24.5064 34.861 39.8102 34.861 43.6125 33.8075C44.6512 33.5219 45.5981 32.965 46.359 32.192C47.1199 31.4191 47.6681 30.4571 47.9492 29.4019C49.1623 22.5287 49.5362 12.0768 47.9178 5.45903Z" fill="#FF0000"/>
<path d="M19.604 24.9008L32.2996 17.4306L19.604 9.96045V24.9008Z" fill="white"/>
</g>
<defs>
<clipPath id="clip0_391_12">
<rect width="49" height="35" fill="white"/>
</clipPath>
</defs>
</svg>
